<?xml version="1.0" encoding="utf-8"?>
<!-- Generator: Adobe Illustrator 25.0.0, SVG Export Plug-In . SVG Version: 6.00 Build 0)  -->
<svg version="1.1" xmlns="http://www.w3.org/2000/svg" xmlns:xlink="http://www.w3.org/1999/xlink" x="0px" y="0px"
	 viewBox="0 0 516.78 600" style="enable-background:new 0 0 516.78 600;" xml:space="preserve">
<style type="text/css">
	.st0{fill:#212932;}
	.st1{fill:none;stroke:#155264;stroke-width:17.897;stroke-linecap:round;stroke-linejoin:round;stroke-miterlimit:10;}
</style>
<g id="Type_2_">
	<g id="Type">
		<g id="Type_1_">
			<g>
				<path class="st0" d="M51.09,539.68c2.2,1.07,4.2,2.41,6,4.02c1.8,1.61,3.34,3.43,4.61,5.46s2.25,4.2,2.96,6.51
					c0.7,2.32,1.06,4.71,1.06,7.19c0,3.5-0.66,6.8-1.99,9.89c-1.32,3.1-3.14,5.81-5.45,8.12s-5.02,4.13-8.12,5.46
					c-3.1,1.32-6.43,1.99-9.98,1.99c-3.61,0-6.86-0.58-9.77-1.74c-2.9-1.15-5.48-2.58-7.74-4.27s-4.14-3.51-5.66-5.46
					c-1.52-1.94-2.68-3.73-3.47-5.37h-0.08c-1.24-2.14-1.56-4.38-0.97-6.72c0.59-2.34,1.96-4.16,4.1-5.46
					c1.07-0.62,2.19-1.01,3.34-1.18c1.16-0.17,2.29-0.1,3.38,0.21c1.1,0.31,2.13,0.8,3.09,1.48s1.75,1.55,2.37,2.62l0.16,0.25
					c0.12,0.11,0.18,0.23,0.21,0.34c0.03,0.11,0.1,0.23,0.21,0.34c0,0.06,0.24,0.47,0.72,1.23s1.17,1.58,2.07,2.45
					s2.02,1.68,3.34,2.41s2.89,1.1,4.69,1.1c1.07,0,2.09-0.2,3.04-0.59c0.96-0.39,1.79-0.94,2.5-1.65s1.25-1.52,1.65-2.45
					c0.39-0.93,0.59-1.93,0.59-3c0-1.47-0.38-2.85-1.14-4.15c-0.76-1.3-1.82-2.26-3.17-2.88l-15.05-6.43
					c-0.11,0-0.28-0.06-0.51-0.17c-4.06-2.09-7.28-5.03-9.65-8.84c-2.37-3.8-3.55-7.99-3.55-12.56c0-3.27,0.63-6.37,1.9-9.3
					s2.97-5.47,5.12-7.61c2.14-2.14,4.67-3.85,7.57-5.12s6.02-1.9,9.35-1.9c3.27,0,6.25,0.58,8.92,1.73
					c2.68,1.16,5.02,2.47,7.02,3.93c2,1.47,3.6,2.86,4.78,4.19s1.89,2.16,2.12,2.5c0.73,0.96,1.25,2.02,1.56,3.17
					c0.31,1.16,0.39,2.3,0.25,3.43s-0.51,2.22-1.1,3.26s-1.37,1.93-2.33,2.66s-2.02,1.24-3.17,1.52c-1.16,0.28-2.3,0.35-3.43,0.21
					c-1.13-0.14-2.2-0.49-3.21-1.06c-1.02-0.56-1.89-1.32-2.62-2.28c-0.34-0.45-0.83-1-1.48-1.65c-0.65-0.65-1.38-1.25-2.2-1.82
					c-0.82-0.56-1.67-1.04-2.54-1.44c-0.88-0.39-1.73-0.59-2.58-0.59c-1.69,0-3.14,0.61-4.36,1.82c-1.21,1.21-1.82,2.66-1.82,4.36
					c0,1.13,0.29,2.17,0.89,3.13c0.59,0.96,1.37,1.72,2.33,2.29l14.89,6.34c0.11,0,0.18,0.01,0.21,0.04
					C50.99,539.67,51.03,539.68,51.09,539.68z"/>
				<path class="st0" d="M188.11,573.18c0.85,0.9,1.49,1.9,1.94,3s0.68,2.21,0.68,3.34s-0.23,2.24-0.68,3.34
					c-0.45,1.1-1.1,2.07-1.94,2.92c-0.85,0.9-1.82,1.57-2.91,1.99c-1.1,0.42-2.22,0.63-3.34,0.63c-1.13,0-2.24-0.21-3.34-0.63
					c-1.1-0.42-2.1-1.08-3-1.99l-4.05-4.06c-3.33,2.14-6.92,3.81-10.78,4.99s-7.9,1.77-12.12,1.77c-3.89,0-7.64-0.51-11.24-1.52
					c-3.61-1.02-6.97-2.44-10.1-4.27s-5.97-4.03-8.53-6.6c-2.56-2.56-4.76-5.41-6.59-8.54s-3.26-6.5-4.27-10.11
					c-1.02-3.61-1.52-7.36-1.52-11.25s0.51-7.64,1.52-11.25c1.01-3.61,2.43-6.98,4.27-10.11c1.83-3.13,4.03-5.98,6.59-8.54
					s5.41-4.77,8.53-6.6c3.13-1.83,6.49-3.26,10.1-4.27c3.6-1.01,7.35-1.52,11.24-1.52c5.8,0,11.28,1.11,16.43,3.34
					s9.63,5.24,13.43,9.05c3.8,3.81,6.82,8.29,9.04,13.45c2.23,5.16,3.34,10.64,3.34,16.45c0,4.23-0.59,8.28-1.77,12.14
					c-1.18,3.86-2.84,7.46-4.98,10.78L188.11,573.18z M173.05,546.17c0-3.39-0.63-6.57-1.91-9.54c-1.27-2.96-3.02-5.56-5.25-7.8
					c-2.23-2.23-4.82-3.98-7.79-5.26c-2.97-1.27-6.15-1.91-9.53-1.91c-3.39,0-6.57,0.64-9.54,1.91c-2.97,1.27-5.56,3.03-7.79,5.26
					s-3.98,4.84-5.26,7.81c-1.27,2.97-1.9,6.15-1.9,9.55c0,3.39,0.63,6.58,1.9,9.55c1.27,2.97,3.02,5.57,5.25,7.81
					s4.82,3.99,7.79,5.26c2.97,1.28,6.14,1.91,9.52,1.91c3.55,0,6.83-0.71,9.82-2.12l-16.07-16.15c-0.9-0.85-1.58-1.82-2.03-2.92
					s-0.68-2.21-0.68-3.34s0.22-2.24,0.68-3.34c0.45-1.1,1.13-2.07,2.03-2.92c0.85-0.9,1.82-1.56,2.91-1.99
					c1.1-0.42,2.22-0.63,3.34-0.63s2.24,0.21,3.34,0.63c1.1,0.42,2.07,1.08,2.91,1.99L170.94,556
					C172.36,553.07,173.05,549.79,173.05,546.17z"/>
				<path class="st0" d="M290.41,503.9c1.23,0,2.39,0.24,3.45,0.72s1.99,1.11,2.77,1.9c0.79,0.79,1.42,1.72,1.9,2.79
					c0.48,1.07,0.72,2.23,0.72,3.47v42.29c0,4.62-0.88,8.97-2.62,13.03s-4.12,7.6-7.14,10.61c-3.01,3.01-6.55,5.4-10.6,7.15
					c-4.05,1.75-8.37,2.62-12.93,2.62c-4.62,0-8.95-0.88-13.01-2.62c-4.05-1.75-7.59-4.13-10.61-7.15
					c-3.01-3.02-5.39-6.55-7.13-10.61c-1.75-4.06-2.62-8.4-2.62-13.03v-42.29c0-1.24,0.22-2.39,0.67-3.47c0.45-1.07,1.08-2,1.9-2.79
					c0.81-0.79,1.75-1.42,2.82-1.9c1.06-0.48,2.22-0.72,3.45-0.72s2.4,0.24,3.5,0.72c1.09,0.48,2.03,1.12,2.82,1.91
					c0.78,0.79,1.42,1.72,1.89,2.79c0.48,1.08,0.72,2.23,0.72,3.47v42.35c0,2.14,0.41,4.16,1.23,6.05c0.82,1.89,1.94,3.54,3.35,4.96
					c1.42,1.41,3.07,2.53,4.96,3.34c1.89,0.82,3.91,1.23,6.06,1.23s4.17-0.41,6.06-1.23c1.89-0.82,3.53-1.93,4.92-3.34
					c1.39-1.41,2.49-3.06,3.31-4.96c0.82-1.89,1.23-3.91,1.23-6.05V512.8c0-1.24,0.24-2.4,0.71-3.47c0.48-1.07,1.11-2,1.9-2.79
					c0.78-0.79,1.72-1.42,2.82-1.91C288.02,504.15,289.18,503.9,290.41,503.9z"/>
				<path class="st0" d="M402.4,574.19c0.71,0.9,1.21,1.89,1.52,2.96s0.39,2.19,0.25,3.34c-0.14,1.16-0.49,2.27-1.06,3.34
					c-0.79,1.47-1.87,2.58-3.26,3.34c-1.38,0.76-2.83,1.14-4.35,1.14c-1.35,0-2.76-0.37-4.23-1.1l-33.92-18.95v11.33
					c0,1.18-0.22,2.3-0.68,3.34s-1.07,1.97-1.86,2.79c-0.79,0.82-1.72,1.45-2.79,1.9c-1.08,0.45-2.2,0.68-3.38,0.68
					c-1.19,0-2.32-0.23-3.38-0.68c-1.08-0.45-2-1.08-2.79-1.9s-1.41-1.75-1.86-2.79s-0.68-2.16-0.68-3.34v-26.05v-0.26V514.2
					c0-1.18,0.22-2.31,0.68-3.38c0.45-1.07,1.07-2,1.86-2.79c0.79-0.79,1.72-1.41,2.79-1.86c1.07-0.45,2.2-0.68,3.38-0.68h25.04
					c4.34,0,8.37,0.72,12.09,2.16c3.73,1.44,6.95,3.43,9.69,5.96c2.73,2.54,4.88,5.53,6.43,8.97c1.55,3.44,2.33,7.19,2.33,11.25
					c0,3.44-0.58,6.68-1.74,9.73c-1.15,3.05-2.76,5.77-4.82,8.16c-2.06,2.4-4.51,4.43-7.36,6.09c-2.85,1.67-5.99,2.86-9.44,3.6
					l18.87,10.57C400.81,572.56,401.69,573.29,402.4,574.19z M386.79,533.85c0-1.86-0.38-3.48-1.14-4.86s-1.75-2.52-2.96-3.43
					c-1.22-0.9-2.61-1.57-4.19-1.99c-1.57-0.42-3.18-0.63-4.82-0.63h-16.33v21.74h16.33c1.63,0,3.24-0.21,4.82-0.63
					c1.58-0.42,2.97-1.07,4.19-1.95c1.21-0.87,2.2-2,2.96-3.38C386.41,537.33,386.79,535.71,386.79,533.85z"/>
				<path class="st0" d="M500.22,570.13c1.07,0.45,2,1.07,2.79,1.86s1.41,1.72,1.86,2.79c0.45,1.07,0.68,2.2,0.68,3.38
					s-0.23,2.31-0.68,3.38c-0.45,1.07-1.08,2-1.86,2.79c-0.79,0.79-1.72,1.41-2.79,1.86c-1.08,0.45-2.2,0.68-3.38,0.68h-42.63
					c-1.19,0-2.32-0.23-3.38-0.68c-1.08-0.45-2-1.07-2.79-1.86s-1.41-1.72-1.86-2.79c-0.45-1.07-0.68-2.2-0.68-3.38v-65.55
					c0-1.18,0.22-2.31,0.68-3.38c0.45-1.07,1.07-2,1.86-2.79c0.79-0.79,1.72-1.41,2.79-1.86c1.07-0.45,2.2-0.68,3.38-0.68
					s2.31,0.23,3.38,0.68c1.07,0.45,2.02,1.07,2.83,1.86s1.45,1.72,1.9,2.79c0.45,1.07,0.68,2.2,0.68,3.38v56.84h33.83
					C498.02,569.46,499.15,569.68,500.22,570.13z"/>
			</g>
		</g>
	</g>
</g>
<g id="Squirrel_Image">
	<g id="Squirel_Image">
		<path id="Squirrel-Image_1_" class="st1" d="M139.38,250.55c-21.15-13.22-27.19-17.75-39.15-37.89
			c-11.96-20.13-17.93-41.49-17.93-64.07c0-22.2,5.78-43.18,17.35-62.94C111.2,65.89,128.36,50,151.1,37.95
			c22.73-12.04,50.17-18.06,82.32-18.06h127.59c17.25,0,33.12,3.95,47.63,11.85c14.49,7.9,26.06,18.63,34.69,32.18
			c8.62,13.55,12.94,28.42,12.94,44.6c0,15.05-21.18,55.39-36.44,54.37c-20.14-1.35-54.48-39.98-75-28.35
			c-23.73,13.46,1.43,30.62,2.07,30.99c18.69,10.63,61.16,23.05,79.97,46.57c18.82,23.52,28.22,49.96,28.22,79.31
			c0,22.58-5.79,43.66-17.35,63.22l-60.25,91.38c-20.76,36.07-39.88,10.68-53.2,0.86c-68.97-50.85-138.7,0.37-138.7,0.37
			c-54.22,48.3-58.44-15.65-58.44-15.65c-4.96-36.05-30.97-21.28-45.13-19.93c-33.41,3.17-37.18-16.41-38.26-27.89
			c-4.08-43.38,31.18-57.14,31.18-57.14c-8.5-19.05-9.07-33.85,0-36.88c9.9-3.3,34.72,18.51,34.72,18.51
			c102.03-76.87,223.2-10.2,223.2-10.2"/>
	</g>
</g>
</svg>
